<?xml version="1.0" encoding="UTF-8"?>
<svg id="Layer_2" data-name="Layer 2" xmlns="http://www.w3.org/2000/svg" xmlns:xlink="http://www.w3.org/1999/xlink" viewBox="0 0 596.79 256.7">
  <defs>
    <style>
      .cls-1 {
        stroke-width: 7px;
      }

      .cls-1, .cls-2, .cls-3 {
        fill: none;
      }

      .cls-1, .cls-3 {
        stroke: #000;
      }

      .cls-3 {
        stroke-width: 8px;
      }

      .cls-4 {
        clip-path: url(#clippath);
      }
    </style>
    <clipPath id="clippath">
      <ellipse class="cls-2" cx="298.39" cy="128.35" rx="294.89" ry="124.85"/>
    </clipPath>
  </defs>
  <g id="Layer_1-2" data-name="Layer 1">
    <g class="cls-4">
      <path class="cls-3" d="M500.96,48.34l-134.3.29h-114.23c-33.37,0-46.71,18.24-46.71,43.15,0,20.91,9.34,43.38,49.38,43.38h34.92c18.46,0,23.58,8.9,23.58,18.68,0,10.9-6.45,18.68-20.69,18.68h-99.36c-2.18,0-3.9-1.78-3.9-3.96,0-.01,0-.03,0-.04V52.53c0-2.15-1.75-3.9-3.9-3.9h-18.67c-2.15,0-3.9,1.75-3.9,3.9v110.27c0,5.12-3.45,9.73-9.01,9.73-4.89,0-9.14-2.55-10.92-6.11l-42.29-92.53c-.04-.08-.07-.17-.1-.25-6.23-17.05-15.57-27.68-36.43-27.68-23.36,0-34.48,13.13-34.48,32.7v116.22c0,2.15,1.75,3.9,3.9,3.9h18.45c2.15,0,3.9-1.75,3.9-3.9v-114.88c0-5.34,3.11-8.67,9.12-8.67,4.67,0,7.34,2,9.34,6.45l43.82,95.87c11.65,25.14,13.27,25.13,35.83,25.13h137.72c34.26,0,47.82-18.68,47.82-44.04,0-21.58-9.57-44.27-50.49-44.27h-35.15c-17.57,0-22.25-8.67-22.25-17.8,0-10.46,6.01-17.8,19.58-17.8h104.44c2.17,0,3.92,1.77,3.9,3.94l-1.05,116.32c-.02,2.17,1.73,3.94,3.9,3.94h21.64c2.15,0,3.9-1.75,3.9-3.9v-110.39c0-2.78,1.11-4.17,3.62-4.17h53.16c2.15,0,3.9,1.75,3.9,3.9v110.66c0,2.15,1.75,3.9,3.9,3.9h21.96c2.15,0,3.9-1.75,3.9-3.9v-110.66c0-2.15,1.75-3.9,3.9-3.9h17.48c30.87,0,44.21,12.79,44.21,35.87v78.69c0,2.15,1.75,3.9,3.9,3.9h21.96c2.15,0,3.9-1.75,3.9-3.9v-78.69c0-40.6-23.32-68.14-73.09-68.14Z"/>
    </g>
    <ellipse class="cls-1" cx="298.39" cy="128.35" rx="294.89" ry="124.85"/>
  </g>
</svg>