<?xml version="1.0" encoding="UTF-8"?>
<svg id="Layer_2" data-name="Layer 2" xmlns="http://www.w3.org/2000/svg" viewBox="0 0 295.85 313.32">
  <defs>
    <style>
      .cls-1 {
        fill: #719faf;
      }

      .cls-2 {
        fill: #497384;
      }

      .cls-3 {
        stroke-width: 2px;
      }

      .cls-3, .cls-4 {
        fill: none;
        stroke: #719faf;
        stroke-miterlimit: 10;
      }

      .cls-4 {
        stroke-linecap: round;
        stroke-width: 7px;
      }
    </style>
  </defs>
  <g id="Layer_1-2" data-name="Layer 1">
    <path class="cls-2" d="M140.12,33.08C62.73,33.08,0,95.82,0,173.2s62.73,140.12,140.12,140.12,140.12-62.73,140.12-140.12S217.51,33.08,140.12,33.08ZM140.12,304.61c-72.57,0-131.41-58.83-131.41-131.41S67.54,41.8,140.12,41.8s131.41,58.83,131.41,131.41-58.83,131.41-131.41,131.41Z"/>
    <rect class="cls-3" x="45.7" y="97.99" width="121.6" height="110.48" rx="12.04" ry="12.04"/>
    <rect class="cls-3" x="96.13" y="118.85" width="53.47" height="53.47"/>
    <polygon class="cls-3" points="79.65 117.42 51.84 165.6 107.47 165.6 79.65 117.42"/>
    <circle class="cls-3" cx="107.47" cy="165.93" r="28.32"/>
    <rect class="cls-1" x="36.19" y="234.22" width="148.08" height="7.73" rx="3.86" ry="3.86"/>
    <path class="cls-1" d="M219.93,114.41l17.26,8.54c1.16.6,1.5,2.4.91,3.57l-36.54,72.55s-7.57,13.49-28.19,32.79c-.33.31-.87.08-.87-.37.08-4.91.85-24.36,7.99-44.42l35.78-71.31c.35-1.29,1.88-2.23,3.65-1.35Z"/>
    <path class="cls-1" d="M251.26-2.64h11.7c5.89,0,10.67,4.78,10.67,10.67v108.8c0,3.24-2.63,5.87-5.87,5.87h-20.77c-3.24,0-5.87-2.63-5.87-5.87V7.49c0-5.59,4.54-10.13,10.13-10.13Z" transform="translate(52.36 -106.75) rotate(26)"/>
    <path class="cls-4" d="M264,19.18l-5.45-2.72c-4.47-2.23-9.9-.36-12.05,4.15l-28.09,58.98"/>
  </g>
</svg>