<?xml version="1.0" encoding="UTF-8"?>
<svg id="Layer_2" data-name="Layer 2" xmlns="http://www.w3.org/2000/svg" viewBox="0 0 149.69 241.8">
  <defs>
    <style>
      .cls-1, .cls-2, .cls-3 {
        fill: #719faf;
      }

      .cls-2 {
        stroke: #f9f9f9;
      }

      .cls-2, .cls-4, .cls-3 {
        stroke-miterlimit: 10;
      }

      .cls-2, .cls-3 {
        stroke-width: 3px;
      }

      .cls-5 {
        fill: #497384;
      }

      .cls-4 {
        fill: none;
        stroke: #719faf;
        stroke-width: 4px;
      }

      .cls-3 {
        stroke: #fff;
      }
    </style>
  </defs>
  <g id="Layer_1-2" data-name="Layer 1">
    <path class="cls-5" d="M137.69,0H12C5.4,0,0,5.4,0,12v217.8c0,6.6,5.4,12,12,12h125.69c6.6,0,12-5.4,12-12V12c0-6.6-5.4-12-12-12ZM144.46,217.2c0,6.6-5.4,12-12,12H17.23c-6.6,0-12-5.4-12-12V15.6c0-6.6,5.4-12,12-12h115.23c6.6,0,12,5.4,12,12v201.6Z"/>
    <g>
      <circle class="cls-4" cx="94.98" cy="201.08" r="8.66"/>
      <circle class="cls-4" cx="49.99" cy="201.08" r="8.66"/>
      <path class="cls-4" d="M103.48,175.38s13.87,12.47-4.15,12.98-64.2,0-64.2,0"/>
      <path class="cls-4" d="M140.69,112.85h-14.6l-21,61.85-67.46-1.82c-1.66-.04-3.09-1.2-3.48-2.82l-6.65-27.78c-.46-1.91.89-3.79,2.85-3.96l89.04-7.75"/>
      <line class="cls-4" x1="107.27" y1="131.63" x2="93.48" y2="174.71"/>
      <line class="cls-4" x1="116.62" y1="140.74" x2="28.5" y2="146.49"/>
      <line class="cls-4" x1="113.82" y1="148.97" x2="30.39" y2="154.42"/>
      <line class="cls-4" x1="111.03" y1="158.08" x2="32.29" y2="163.23"/>
      <line class="cls-4" x1="108.57" y1="166.3" x2="33.41" y2="171.21"/>
      <line class="cls-4" x1="96.16" y1="131.63" x2="82.37" y2="174.71"/>
      <line class="cls-4" x1="84.75" y1="132.58" x2="71.26" y2="174.71"/>
      <line class="cls-4" x1="73.3" y1="133.65" x2="60.15" y2="174.71"/>
      <line class="cls-4" x1="61.87" y1="134.65" x2="49.05" y2="174.71"/>
      <line class="cls-4" x1="50.4" y1="135.77" x2="38.3" y2="173.59"/>
      <line class="cls-4" x1="38.95" y1="136.84" x2="31.3" y2="160.74"/>
    </g>
    <circle class="cls-1" cx="73.55" cy="227.07" r="8.66"/>
    <circle class="cls-5" cx="73.55" cy="227.07" r="5.67"/>
    <path class="cls-1" d="M108.16,0C73.76,28.4,42.08,0,42.08,0h66.08Z"/>
    <circle class="cls-5" cx="74.84" cy="6.15" r="2.55"/>
    <path class="cls-3" d="M95.17,84.53c-.08.13-.18.25-.27.38l14.04,8.91c.08-.13.17-.25.26-.38,11.01-17.35,5.85-40.42-11.5-51.43h0s-8.9,14.03-8.9,14.03c9.63,6.11,12.48,18.87,6.37,28.49Z"/>
    <g>
      <path class="cls-2" d="M109.2,93.43c-.08.13-.17.25-.26.38l13.23,8.39c.08-.13.17-.25.26-.38,15.64-24.65,8.3-57.42-16.34-73.05h0s-8.39,13.23-8.39,13.23h0c17.35,11.01,22.51,34.08,11.5,51.43Z"/>
      <path class="cls-2" d="M94.9,84.91c.09-.13.18-.25.27-.38,6.11-9.63,3.25-22.39-6.37-28.49l-11.31,17.83,17.41,11.05Z"/>
    </g>
    <path class="cls-3" d="M54.08,65.06c.08-.13.18-.25.27-.38l-14.04-8.91c-.08.13-.17.25-.26.38-11.01,17.35-5.85,40.42,11.5,51.43h0s8.9-14.03,8.9-14.03c-9.63-6.11-12.48-18.87-6.37-28.49Z"/>
    <g>
      <path class="cls-2" d="M40.04,56.16c.08-.13.17-.25.26-.38l-13.23-8.39c-.08.13-.17.25-.26.38-15.64,24.65-8.3,57.42,16.34,73.05,0,0,1.19-1.88,1.19-1.88l7.2-11.35h0c-17.35-11.01-22.51-34.08-11.5-51.43Z"/>
      <path class="cls-2" d="M54.34,64.68c-.09.13-.18.25-.27.38-6.11,9.63-3.25,22.39,6.37,28.49l11.31-17.83-17.41-11.05Z"/>
    </g>
    <circle class="cls-3" cx="74.72" cy="75.19" r="13.15"/>
  </g>
</svg>