<?xml version="1.0" encoding="UTF-8"?>
<svg id="Layer_2" data-name="Layer 2" xmlns="http://www.w3.org/2000/svg" viewBox="0 0 295.8 181.95">
  <defs>
    <style>
      .cls-1 {
        fill: #fff;
      }

      .cls-1, .cls-2 {
        stroke: #497384;
      }

      .cls-1, .cls-2, .cls-3 {
        stroke-miterlimit: 10;
        stroke-width: 2px;
      }

      .cls-2, .cls-3 {
        fill: none;
      }

      .cls-4 {
        fill: #719faf;
      }

      .cls-5 {
        fill: #497384;
      }

      .cls-3 {
        stroke: #719faf;
      }
    </style>
  </defs>
  <g id="Layer_1-2" data-name="Layer 1">
    <rect class="cls-5" x="72.01" y="172.53" width="165.39" height="9.42" rx="4.71" ry="4.71"/>
    <rect class="cls-5" x="124.78" y="167.82" width="55.96" height="9.42" rx="4.71" ry="4.71"/>
    <rect class="cls-2" x="1" y="1" width="286" height="153.2" rx="16.95" ry="16.95"/>
    <g>
      <rect class="cls-4" x="152.76" y="94.2" width="121.31" height="11.32" rx="2.42" ry="2.42"/>
      <rect class="cls-4" x="152.76" y="112.41" width="121.31" height="11.32" rx="2.42" ry="2.42"/>
      <rect class="cls-4" x="152.76" y="130.62" width="121.31" height="11.32" rx="2.42" ry="2.42"/>
    </g>
    <path class="cls-5" d="M1,27.27h286s3.83-17.64-8.75-24.15l-6.95-2.06-255.49-.05S5.82,2.15,1.74,12.97l-.74,14.29Z"/>
    <rect class="cls-1" x="230.47" y="8.47" width="45.44" height="11.32" rx="2.42" ry="2.42"/>
    <rect class="cls-1" x="214.41" y="8.47" width="15.83" height="11.32" rx="3.06" ry="3.06"/>
    <rect class="cls-1" x="197.58" y="8.47" width="15.83" height="11.32" rx="3.06" ry="3.06"/>
    <rect class="cls-1" x="13.4" y="8.47" width="15.83" height="11.32" rx="5.66" ry="5.66"/>
    <rect class="cls-1" x="29.23" y="8.47" width="15.83" height="11.32" rx="5.66" ry="5.66"/>
    <g>
      <path class="cls-4" d="M162.3,67.36c-.44-.18-.74-.4-.89-.66-.15-.26-.23-.64-.23-1.12v-3.96c0-.48.08-.86.23-1.12.15-.26.45-.48.89-.66l29.09-13.06c.26-.09.46-.13.59-.13.57,0,.86.31.86.92v7.26c0,.53-.08.89-.23,1.09-.15.2-.45.39-.89.56l-15.9,6.47c-.53.22-.53.97,0,1.18l15.9,6.47c.44.18.74.36.89.56.15.2.23.56.23,1.09v7.39c0,.62-.29.92-.86.92-.26,0-.46-.04-.59-.13l-29.09-13.06Z"/>
      <path class="cls-4" d="M196.93,80.68c0-.4.09-.77.26-1.12l17.02-41.5c.35-.88.99-1.32,1.91-1.32h8.18c.7,0,1.06.33,1.06.99,0,.31-.07.66-.2,1.06l-17.02,41.5c-.35.88-1.01,1.32-1.98,1.32h-8.11c-.75,0-1.12-.31-1.12-.92Z"/>
      <path class="cls-4" d="M230.25,80.55c-.53,0-.79-.31-.79-.92v-6.79c0-.48.08-.83.23-1.06.15-.22.45-.42.89-.59l15.28-6.59c.93-.4.93-1.73,0-2.13l-15.28-6.59c-.44-.17-.74-.37-.89-.59-.15-.22-.23-.57-.23-1.06v-6.66c0-.62.26-.92.79-.92.13,0,.33.04.59.13l29.16,13.06c.4.18.68.4.86.66.17.26.26.64.26,1.12v3.96c0,.48-.09.86-.26,1.12-.18.26-.46.48-.86.66l-29.16,13.06c-.26.09-.46.13-.59.13Z"/>
    </g>
    <rect class="cls-3" x="32.87" y="43.1" width="87.2" height="87.2" rx="12" ry="12"/>
    <path class="cls-3" d="M38.44,128.4l17.27-40.14c.15-.35.64-.36.8-.01l20.36,43.06-7.53-15.94,21.03-43.69c.04-.08.15-.07.18,0l24.75,56.87"/>
    <circle class="cls-3" cx="62.22" cy="64.46" r="10.68"/>
    <path class="cls-5" d="M17.95,154.2h252.09s15.22.21,16.95-16.95.55-121.87.55-121.87c4.94,2.96,8.25,8.37,8.25,14.55v116.52c0,9.36-7.59,16.95-16.95,16.95H30.35c-6.66,0-12.43-3.84-15.2-9.43"/>
  </g>
</svg>