<?xml version="1.0" encoding="UTF-8"?>
<svg id="Layer_2" data-name="Layer 2" xmlns="http://www.w3.org/2000/svg" viewBox="0 0 730.83 108.5">
  <defs>
    <style>
      .cls-1 {
        fill: #d9e4e8;
      }
    </style>
  </defs>
  <g id="Layer_1-2" data-name="Layer 1">
    <g>
      <path class="cls-1" d="M92.39,32.73c0,13.29,5.06,30.01,25.36,32.2l6.86,16.82c2.86,3.12,6.42,3.19,8.9-.4,2.62-3.79,4.41-10.59,6.38-16.42h3.44c11.04,0,14.22,6.51,14.27,13.11-.05,7.34-3.95,12.56-12.47,12.56h-54.19c.21-1.51.31-3.1.31-4.76V3.22h-15.97v81.87c0,3.48-2.01,5.75-5.37,5.75-2.95,0-4.7-1.82-5.77-4.24L41.79,21.35c-3.76-11.66-8.8-18.13-21.41-18.13C6.28,3.22,0,11.35,0,24.68v83.82h15.83V25.59c0-3.63,1.88-5.9,5.5-5.9,2.82,0,4.43,1.36,5.64,4.39l21.34,65.25c3.76,11.66,9.53,18.93,22.14,18.93l74.14.22c20.67,0,28.85-12.39,28.85-29.65,0-.06,0-.12,0-.18,0-.05,0-.1,0-.15,0-.19,0-.38-.01-.56,0-.23,0-.45-.01-.68-.25-11.01-3.93-22.19-16.57-26.75,5.62-2.35,12.88-4.16,15.48-6.57,1.92-1.79,2.04-5.44.37-7.42l-33.61-15.43h35.36l4.25-17.87h-57.98s-.1,0-.15,0h0c-20.13,0-28.18,12.41-28.18,29.37v.14ZM161.39,40.84c-5.99,2.68-17.71,5.62-22.18,9.87-5.27,5.01-6.08,16.72-11,22.11l-23.51-59.84,57.7,26.36c.28,1.82-.15,1.11-1,1.49Z"/>
      <path d="M313.28,1.95c36.12,0,53.88,17.15,53.88,46.62v59.93h-21.59v-59.93c0-16.75-9.69-26.03-32.09-26.03h-25.02v85.97h-21.59V22.53h-54.08c-1.82,0-2.62,1.01-2.62,3.03v82.94h-21.39V18.49c0-12.51,4.24-16.55,14.93-16.55h109.58Z"/>
      <path d="M467.69,1.95v18.63h-53.35c-11.21,0-16.1,5.21-16.1,13.42,0,8.68,5.52,12.63,16.26,12.63h52.41v16.89h-52.88c-10.73,0-16.26,4.26-16.26,12.94s5.21,13.42,16.1,13.42h53.99v18.63h-53.99c-25.26,0-35.52-12.47-35.52-29.04,0-12.15,5.53-20.36,15.31-24.47-9.94-4.1-15-12.31-15-23.99,0-17.05,10.58-29.04,35.67-29.04h53.35Z"/>
      <path d="M523.4,1.95c31.1,0,47.99,17.36,47.99,53.35s-16.73,53.2-47.99,53.2h-37.57c-6,0-8.84-2.84-8.84-8.68V10.63c0-5.84,2.84-8.68,8.84-8.68h37.57ZM495.62,87.98c0,1.42.63,1.89,2.05,1.89h25.73c20.68,0,29.36-10.26,29.36-34.73s-8.68-34.57-29.36-34.57h-25.73c-1.42,0-2.05.47-2.05,1.89v65.51Z"/>
      <path d="M601.22,1.95v106.55h-18.63V1.95h18.63Z"/>
      <path d="M633.43,108.44h-20.52l37.41-94.71c3.95-9.95,11.21-13.73,22.42-13.73s18.31,3.79,22.1,13.73l35.99,94.71h-20.68l-32.36-85.71c-.95-2.53-2.68-3.63-5.21-3.63s-4.26,1.11-5.37,3.63l-33.78,85.71Z"/>
    </g>
  </g>
</svg>