<?xml version="1.0" encoding="UTF-8"?>
<svg id="Layer_2" data-name="Layer 2" xmlns="http://www.w3.org/2000/svg" viewBox="0 0 472.26 278.24">
  <g id="Layer_1-2" data-name="Layer 1">
    <path d="M244.17,78c0,35.11,13.37,79.32,67.03,85.09l18.14,44.45c7.55,8.26,16.96,8.42,23.52-1.07,6.92-10.01,11.67-27.99,16.87-43.39h9.09c29.18,0,37.57,17.21,37.72,34.66-.14,19.39-10.43,33.2-32.97,33.2h-143.23c.55-4,.83-8.2.83-12.59V0h-42.2v216.37c0,9.21-5.32,15.21-14.19,15.21-7.8,0-12.41-4.8-15.25-11.2L110.44,47.91C100.51,17.1,87.18,0,53.84,0,16.6,0,0,21.5,0,56.71v221.53h41.85V59.11c0-9.6,4.96-15.6,14.54-15.6,7.45,0,11.7,3.6,14.9,11.6l56.4,172.46c9.93,30.81,25.18,50.02,58.52,50.02l195.95.58c54.62,0,76.25-32.75,76.25-78.37,0-.16,0-.31,0-.47,0-.13,0-.26,0-.39,0-.5-.02-.99-.03-1.49,0-.6-.02-1.19-.04-1.79-.66-29.1-10.4-58.63-43.79-70.69,14.86-6.22,34.04-10.98,40.9-17.36,5.08-4.72,5.39-14.39.97-19.61l-88.83-40.79h93.45L472.26,0h-153.24c-.13,0-.25,0-.38,0h.01c-53.2,0-74.48,32.8-74.48,77.62v.38ZM426.55,99.42c-15.82,7.08-46.8,14.85-58.63,26.09-13.92,13.23-16.06,44.19-29.08,58.44l-62.13-158.15,152.48,69.68c.74,4.81-.4,2.93-2.64,3.93Z"/>
  </g>
</svg>