<?xml version="1.0" encoding="UTF-8"?>
<svg id="Layer_2" data-name="Layer 2" xmlns="http://www.w3.org/2000/svg" viewBox="0 0 792 143.46">
  <defs>
    <style>
      .cls-1 {
        fill: #d9e4e8;
      }
    </style>
  </defs>
  <g id="Layer_1-2" data-name="Layer 1">
    <path class="cls-1" d="M125.9,40.22c0,18.1,6.89,40.9,34.56,43.87l9.35,22.92c3.89,4.26,8.74,4.34,12.13-.55,3.57-5.16,6.02-14.43,8.7-22.37h4.68c15.05,0,19.37,8.87,19.45,17.87-.07,10-5.38,17.12-17,17.12h-73.85c.28-2.06.43-4.23.43-6.49V0h-21.76v111.56c0,4.75-2.74,7.84-7.31,7.84-4.02,0-6.4-2.48-7.86-5.78L56.94,24.7C51.82,8.82,44.95,0,27.76,0,8.56,0,0,11.09,0,29.24v114.22h21.58V30.48c0-4.95,2.56-8.05,7.5-8.05,3.84,0,6.03,1.86,7.68,5.98l29.08,88.92c5.12,15.89,12.98,25.79,30.17,25.79l101.03.3c28.16,0,39.31-16.89,39.31-40.41,0-.08,0-.16,0-.24,0-.07,0-.13,0-.2,0-.26-.01-.51-.02-.77,0-.31,0-.61-.02-.92-.34-15-5.36-30.23-22.58-36.45,7.66-3.21,17.55-5.66,21.09-8.95,2.62-2.43,2.78-7.42.5-10.11l-45.8-21.03h48.18l5.79-24.35h-79.01c-.07,0-.13,0-.2,0h0c-27.43,0-38.4,16.91-38.4,40.02v.19ZM219.93,51.26c-8.16,3.65-24.13,7.65-30.23,13.45-7.18,6.82-8.28,22.79-14.99,30.13L142.67,13.31l78.62,35.93c.38,2.48-.21,1.51-1.36,2.03Z"/>
    <path d="M374.45,36.91c36.12,0,53.88,17.15,53.88,46.62v59.93h-21.59v-59.93c0-16.75-9.69-26.03-32.09-26.03h-25.02v85.97h-21.59V57.5h-54.08c-1.82,0-2.62,1.01-2.62,3.03v82.94h-21.39V53.46c0-12.51,4.24-16.55,14.93-16.55h109.58Z"/>
    <path d="M528.87,36.91v18.63h-53.35c-11.21,0-16.1,5.21-16.1,13.42,0,8.68,5.52,12.63,16.26,12.63h52.41v16.89h-52.88c-10.73,0-16.26,4.26-16.26,12.94s5.21,13.42,16.1,13.42h53.99v18.63h-53.99c-25.26,0-35.52-12.47-35.52-29.04,0-12.15,5.53-20.36,15.31-24.47-9.94-4.1-15-12.31-15-23.99,0-17.05,10.58-29.04,35.67-29.04h53.35Z"/>
    <path d="M584.58,36.91c31.1,0,47.99,17.36,47.99,53.35s-16.73,53.2-47.99,53.2h-37.57c-6,0-8.84-2.84-8.84-8.68V45.59c0-5.84,2.84-8.68,8.84-8.68h37.57ZM556.8,122.94c0,1.42.63,1.89,2.05,1.89h25.73c20.68,0,29.36-10.26,29.36-34.73s-8.68-34.57-29.36-34.57h-25.73c-1.42,0-2.05.47-2.05,1.89v65.51Z"/>
    <path d="M662.39,36.91v106.55h-18.63V36.91h18.63Z"/>
    <path d="M694.6,143.41h-20.52l37.41-94.71c3.95-9.95,11.21-13.73,22.42-13.73s18.31,3.79,22.1,13.73l35.99,94.71h-20.68l-32.36-85.71c-.95-2.53-2.68-3.63-5.21-3.63s-4.26,1.11-5.37,3.63l-33.78,85.71Z"/>
    <g>
      <path d="M257.78,29.82h-4.65V8.55c0-3.47,1.97-5.79,6.1-5.79,3.7,0,5.36,1.89,6.46,4.92l7.76,16.97c.32.63.83,1.1,1.69,1.1.98,0,1.58-.59,1.58-1.5V3.23h4.69v21.23c0,3.5-2.01,5.83-6.1,5.83-3.7,0-5.4-1.89-6.5-4.92l-7.76-16.97c-.35-.79-.83-1.14-1.65-1.14-1.06,0-1.62.59-1.62,1.54v21.03Z"/>
      <path d="M302.8,9.02c5.51,0,9.02,3.39,9.02,10.4s-3.5,10.4-9.02,10.4h-4.37c-5.55,0-9.02-3.39-9.02-10.4s3.47-10.4,9.02-10.4h4.37ZM298.82,13.04c-3.62,0-5.2,1.89-5.2,6.38s1.58,6.34,5.2,6.34h3.58c3.58,0,5.2-1.85,5.2-6.34s-1.61-6.38-5.2-6.38h-3.58Z"/>
      <path d="M332.97,9.02c5.2,0,7.25,2.91,7.25,6.85v9.77c0,2.99-.79,4.17-4.29,4.17h-9.73c-4.92,0-6.97-2.4-6.97-6.34s1.89-5.99,7.01-5.99h9.88v-1.58c0-1.61-.91-2.88-3.19-2.88h-12.45v-4.02h12.48ZM336.12,24.7v-3.9h-9.81c-2.21,0-2.99.91-2.99,2.44s.83,2.52,2.92,2.52h8.74c.83,0,1.14-.31,1.14-1.06Z"/>
      <path d="M353.14,0v9.02h7.33c7.01,0,10.48,3.39,10.48,9.1v11.7h-4.21v-11.7c0-3.19-1.93-5.08-6.26-5.08h-7.33v16.78h-4.17V0h4.17Z"/>
      <path d="M413.76,3.23v4.65h-13.63c-2.4,0-3.47,1.3-3.47,3.15,0,1.61.83,3.15,3.94,3.15h6.22c7.25,0,8.94,4.02,8.94,7.84,0,4.49-2.4,7.8-8.47,7.8h-14.81v-4.65h14.96c2.52,0,3.66-1.38,3.66-3.31,0-1.73-.91-3.31-4.17-3.31h-6.18c-7.09,0-8.74-3.98-8.74-7.68,0-4.41,2.36-7.64,8.27-7.64h13.47Z"/>
      <path d="M447.83,9.02c7.05,0,10.52,3.35,10.52,9.1v11.7h-4.21v-11.7c0-3.27-1.89-5.08-6.26-5.08h-4.88v16.78h-4.21V13.04h-10.55c-.35,0-.51.2-.51.59v16.19h-4.17V12.25c0-2.44.83-3.23,2.91-3.23h21.38Z"/>
      <path d="M480.32,9.02c5.2,0,7.25,2.91,7.25,6.85v9.77c0,2.99-.79,4.17-4.29,4.17h-9.73c-4.92,0-6.97-2.4-6.97-6.34s1.89-5.99,7.01-5.99h9.88v-1.58c0-1.61-.91-2.88-3.19-2.88h-12.45v-4.02h12.48ZM483.47,24.7v-3.9h-9.81c-2.21,0-2.99.91-2.99,2.44s.83,2.52,2.92,2.52h8.74c.83,0,1.14-.31,1.14-1.06Z"/>
      <path d="M510.46,9.02v4.02h-7.33c-1.85,0-2.68.87-2.68,2.68v14.1h-4.17v-14.73c0-4.17,1.54-6.06,5.63-6.06h8.55Z"/>
      <path d="M518.93,9.02v-4.92h4.21v4.92h5.75v4.02h-5.75v9.85c0,2.32.83,3.11,2.8,3.11h2.88v3.82h-3.74c-4.29,0-6.14-1.73-6.14-7.17v-9.61h-2.83v-4.02h2.83Z"/>
    </g>
  </g>
</svg>