<?xml version="1.0" encoding="UTF-8"?>
<svg id="Layer_2" data-name="Layer 2" xmlns="http://www.w3.org/2000/svg" viewBox="0 0 792 146.63">
  <defs>
    <style>
      .cls-1 {
        letter-spacing: .09em;
      }

      .cls-2 {
        fill: #d9e4e8;
      }

      .cls-3 {
        letter-spacing: .07em;
      }

      .cls-4 {
        font-family: Nasalization-Regular, Nasalization;
        font-size: 39.39px;
      }
    </style>
  </defs>
  <g id="Layer_1-2" data-name="Layer 1">
    <path class="cls-2" d="M125.9,43.39c0,18.1,6.89,40.9,34.56,43.87l9.35,22.92c3.89,4.26,8.74,4.34,12.13-.55,3.57-5.16,6.02-14.43,8.7-22.37h4.68c15.05,0,19.37,8.87,19.45,17.87-.07,10-5.38,17.12-17,17.12h-73.85c.28-2.06.43-4.23.43-6.49V3.17h-21.76v111.56c0,4.75-2.74,7.84-7.31,7.84-4.02,0-6.4-2.48-7.86-5.78L56.94,27.87C51.82,11.99,44.95,3.17,27.76,3.17,8.56,3.17,0,14.26,0,32.41v114.22h21.58V33.65c0-4.95,2.56-8.05,7.5-8.05,3.84,0,6.03,1.86,7.68,5.98l29.08,88.92c5.12,15.89,12.98,25.79,30.17,25.79l101.03.3c28.16,0,39.31-16.89,39.31-40.41,0-.08,0-.16,0-.24,0-.07,0-.13,0-.2,0-.26-.01-.51-.02-.77,0-.31,0-.61-.02-.92-.34-15-5.36-30.23-22.58-36.45,7.66-3.21,17.55-5.66,21.09-8.95,2.62-2.43,2.78-7.42.5-10.11l-45.8-21.03h48.18l5.79-24.35h-79.01c-.07,0-.13,0-.2,0h0c-27.43,0-38.4,16.91-38.4,40.02v.19ZM219.93,54.43c-8.16,3.65-24.13,7.65-30.23,13.45-7.18,6.82-8.28,22.79-14.99,30.13l-32.04-81.54,78.62,35.93c.38,2.48-.21,1.51-1.36,2.03Z"/>
    <path d="M374.45,40.08c36.12,0,53.88,17.15,53.88,46.62v59.93h-21.59v-59.93c0-16.75-9.69-26.03-32.09-26.03h-25.02v85.97h-21.59V60.67h-54.08c-1.82,0-2.62,1.01-2.62,3.03v82.94h-21.39V56.63c0-12.51,4.24-16.55,14.93-16.55h109.58Z"/>
    <path d="M528.87,40.08v18.63h-53.35c-11.21,0-16.1,5.21-16.1,13.42,0,8.68,5.52,12.63,16.26,12.63h52.41v16.89h-52.88c-10.73,0-16.26,4.26-16.26,12.94s5.21,13.42,16.1,13.42h53.99v18.63h-53.99c-25.26,0-35.52-12.47-35.52-29.04,0-12.15,5.53-20.36,15.31-24.47-9.94-4.1-15-12.31-15-23.99,0-17.05,10.58-29.04,35.67-29.04h53.35Z"/>
    <path d="M584.58,40.08c31.1,0,47.99,17.36,47.99,53.35s-16.73,53.2-47.99,53.2h-37.57c-6,0-8.84-2.84-8.84-8.68V48.77c0-5.84,2.84-8.68,8.84-8.68h37.57ZM556.8,126.11c0,1.42.63,1.89,2.05,1.89h25.73c20.68,0,29.36-10.26,29.36-34.73s-8.68-34.57-29.36-34.57h-25.73c-1.42,0-2.05.47-2.05,1.89v65.51Z"/>
    <path d="M662.39,40.08v106.55h-18.63V40.08h18.63Z"/>
    <path d="M694.6,146.58h-20.52l37.41-94.71c3.95-9.95,11.21-13.73,22.42-13.73s18.31,3.79,22.1,13.73l35.99,94.71h-20.68l-32.36-85.71c-.95-2.53-2.68-3.63-5.21-3.63s-4.26,1.11-5.37,3.63l-33.78,85.71Z"/>
    <text class="cls-4" transform="translate(249.94 32.99)"><tspan class="cls-3" x="0" y="0">Noah Sma</tspan><tspan class="cls-1" x="243.39" y="0">r</tspan><tspan class="cls-3" x="265.25" y="0">t</tspan></text>
  </g>
</svg>