<?xml version="1.0" encoding="UTF-8"?>
<svg id="Layer_2" data-name="Layer 2" xmlns="http://www.w3.org/2000/svg" viewBox="0 0 775.6 238">
  <defs>
    <style>
      .cls-1 {
        stroke: #fff;
        stroke-width: 4px;
      }

      .cls-1, .cls-2 {
        stroke-miterlimit: 10;
      }

      .cls-2 {
        fill: none;
        stroke: #000;
        stroke-width: 18px;
      }
    </style>
  </defs>
  <g id="Layer_4" data-name="Layer 4">
    <g>
      <ellipse class="cls-2" cx="387.8" cy="119" rx="378.8" ry="110"/>
      <path class="cls-1" d="M530.81,14.01l-12.97,65.04c18.52-27.81,86.7-21.63,93,15.72,3.28,19.4-6.76,78.33-18.15,94.72-19.21,27.64-71.26,33.7-95.18,9.48l-2.97,12.19h-26.32L503.96,14.01h26.85ZM537.66,91.77c-7.03,1.06-12.2,4.95-14.76,11.8-3.92,10.49-14.92,62.63-10.26,73.01,6.74,15.03,34.04,17.81,44.84,6.17,8.98-9.67,17.22-62.9,14.4-75.73-3.33-15.14-22.28-17.04-34.22-15.24Z"/>
      <path class="cls-1" d="M669.95,56.48l-1.03,12.19c9.73-11.99,26.74-16.56,41.64-13.24l-4.02,25.45c-30.58-1.01-41.45,4.87-46.17,34.11s-10.21,57.93-14.49,85.79h-30.81l22.36-144.31h32.52Z"/>
      <path class="cls-1" d="M463.43,159.13c.06,32.7-21.47,54.11-54.72,53.81-25.27-.23-68.24,2.08-73.69-29.94-2.83-16.59,5.29-66.76,11.29-83.28,12.65-34.84,58.56-39.18,90.35-34.62,45.04,6.47,39.01,48.46,30.14,81.93l-91.97,1.1c-3.78.05-7.02,2.77-7.66,6.5-1.09,6.38-.62,15.56-.08,18.65,2.94,16.77,38.3,14.5,51.14,10.91,9.07-2.53,12.83-1.97,18.27-24.53l26.93-.53ZM440.23,127.59c1.1-21.8,1.87-34.63-23.28-36.66-27.77-2.24-39.83,6.1-44.82,30.82-.61,3.02,1.73,5.84,4.81,5.84h63.29Z"/>
      <path class="cls-1" d="M133.07,26.52c-4.76,35.24-24.56,74.48,23.46,75.29,46.45.78,46.84-39.99,47.67-75.29h32.52c-5.62,33.42-5.51,75.92-38.61,94.52,31.51,18.75,11.91,61.38,10.16,90.44h-33.57c6-22.59,26.67-78.77-32.59-73.27-20.7,1.92-26.83,15.76-30.82,34.23-2.75,12.73-5.4,27.65-6.86,39.05h-32.34c7.63-30.43,4.36-75.8,38.61-89.45-28.5-25.76-11.92-62.74-10.16-95.51h32.52Z"/>
      <path class="cls-1" d="M288.46,14.48l-28.43,175.77,2,2.12,4.25.82c1.62,13.63-.56,19.42-15.3,20.6-17.82,1.42-22.19-6.95-21.57-23.58L255.94,14.48h32.52Z"/>
      <path class="cls-1" d="M341.04,14.32l-28.43,175.77,2,2.12,4.25.82c1.62,13.63-.56,19.42-15.3,20.6-17.82,1.42-22.19-6.95-21.57-23.58l26.52-175.73h32.52Z"/>
    </g>
  </g>
</svg>